<?xml version="1.0" encoding="UTF-8"?><svg xmlns="http://www.w3.org/2000/svg" xmlns:xlink="http://www.w3.org/1999/xlink" fill-opacity="1" color-rendering="auto" color-interpolation="auto" text-rendering="auto" stroke="black" stroke-linecap="square" width="1415" stroke-miterlimit="10" shape-rendering="auto" stroke-opacity="1" fill="black" stroke-dasharray="none" font-weight="normal" stroke-width="1" height="918" font-family="'Dialog'" font-style="normal" stroke-linejoin="miter" font-size="12px" stroke-dashoffset="0" image-rendering="auto">
  <!--Generated by ySVG 2.6-->
  <defs id="genericDefs"/>
  <g>
    <defs id="defs1">
      <clipPath clipPathUnits="userSpaceOnUse" id="clipPath1">
        <path d="M0 0 L1415 0 L1415 918 L0 918 L0 0 Z"/>
      </clipPath>
      <clipPath clipPathUnits="userSpaceOnUse" id="clipPath2">
        <path d="M-170 -88 L1245 -88 L1245 830 L-170 830 L-170 -88 Z"/>
      </clipPath>
      <clipPath clipPathUnits="userSpaceOnUse" id="clipPath3">
        <path d="M-389.2924 128.9721 L-389.2924 -1286.028 L528.7076 -1286.028 L528.7076 128.9721 L-389.2924 128.9721 Z"/>
      </clipPath>
      <clipPath clipPathUnits="userSpaceOnUse" id="clipPath4">
        <path d="M-189.5231 826.6721 L-189.5231 -588.3279 L728.4769 -588.3279 L728.4769 826.6721 L-189.5231 826.6721 Z"/>
      </clipPath>
      <clipPath clipPathUnits="userSpaceOnUse" id="clipPath5">
        <path d="M-293.9879 872.1721 L-293.9879 -542.8279 L624.012 -542.8279 L624.012 872.1721 L-293.9879 872.1721 Z"/>
      </clipPath>
    </defs>
    <g fill="white" text-rendering="geometricPrecision" shape-rendering="geometricPrecision" transform="scale(1,1) translate(170,88)" stroke="white">
      <rect x="-170" width="1415" height="918" y="-88" clip-path="url(#clipPath2)" stroke="none"/>
    </g>
    <g fill="lime" text-rendering="geometricPrecision" shape-rendering="geometricPrecision" transform="matrix(1,0,0,1,170,88)" stroke="lime">
      <rect x="-30" width="210" height="26" y="450" clip-path="url(#clipPath2)" stroke="none"/>
      <rect x="-31" width="1" height="28" y="449" clip-path="url(#clipPath2)" stroke="none"/>
      <rect x="-30" width="210" height="1" y="449" clip-path="url(#clipPath2)" stroke="none"/>
      <rect x="-30" y="476" clip-path="url(#clipPath2)" fill="rgb(0,178,0)" width="211" height="1" stroke="none"/>
      <rect x="180" y="449" clip-path="url(#clipPath2)" fill="rgb(0,178,0)" width="1" height="27" stroke="none"/>
    </g>
    <g font-size="13px" stroke-linecap="butt" transform="matrix(1,0,0,1,170,88)" text-rendering="geometricPrecision" font-family="sans-serif" shape-rendering="geometricPrecision" font-weight="bold" stroke-miterlimit="1.45">
      <text x="47.214" xml:space="preserve" y="468.497" clip-path="url(#clipPath2)" stroke="none">Bicicleta</text>
    </g>
    <g text-rendering="geometricPrecision" shape-rendering="geometricPrecision" transform="matrix(1,0,0,1,170,88)">
      <line y2="477" fill="none" x1="-30" clip-path="url(#clipPath2)" x2="179" y1="477"/>
      <text stroke-linecap="butt" x="-26.2" y="495.1341" clip-path="url(#clipPath2)" font-family="sans-serif" stroke="none" stroke-miterlimit="1.45" xml:space="preserve">- cor: str</text>
      <text stroke-linecap="butt" x="-26.2" y="511.4782" clip-path="url(#clipPath2)" font-family="sans-serif" stroke="none" stroke-miterlimit="1.45" xml:space="preserve">- comprimento: float</text>
      <text stroke-linecap="butt" x="-26.2" y="527.8223" clip-path="url(#clipPath2)" font-family="sans-serif" stroke="none" stroke-miterlimit="1.45" xml:space="preserve">- altura: float</text>
      <text stroke-linecap="butt" x="-26.2" y="544.1664" clip-path="url(#clipPath2)" font-family="sans-serif" stroke="none" stroke-miterlimit="1.45" xml:space="preserve">- aro: int</text>
      <text stroke-linecap="butt" x="-26.2" y="560.5106" clip-path="url(#clipPath2)" font-family="sans-serif" stroke="none" stroke-miterlimit="1.45" xml:space="preserve">- periodicidade_revisao: int</text>
      <text stroke-linecap="butt" x="-26.2" y="576.8547" clip-path="url(#clipPath2)" font-family="sans-serif" stroke="none" stroke-miterlimit="1.45" xml:space="preserve">- ultima_revisao: date</text>
      <line y2="585" fill="none" x1="-30" clip-path="url(#clipPath2)" x2="179" y1="585"/>
      <text stroke-linecap="butt" x="-26.2" y="603.1988" clip-path="url(#clipPath2)" font-family="sans-serif" stroke="none" stroke-miterlimit="1.45" xml:space="preserve">+ pintar(nova_cor: str)</text>
      <text stroke-linecap="butt" x="-26.2" y="619.5429" clip-path="url(#clipPath2)" font-family="sans-serif" stroke="none" stroke-miterlimit="1.45" xml:space="preserve">+ trocar_roda(novo_aro: int)</text>
      <text stroke-linecap="butt" x="-26.2" y="635.887" clip-path="url(#clipPath2)" font-family="sans-serif" stroke="none" stroke-miterlimit="1.45" xml:space="preserve">+ anotar_revisao(</text>
      <text stroke-linecap="butt" x="-26.2" y="652.2311" clip-path="url(#clipPath2)" font-family="sans-serif" stroke="none" stroke-miterlimit="1.45" xml:space="preserve">       data: date,</text>
      <text stroke-linecap="butt" x="-26.2" y="668.5753" clip-path="url(#clipPath2)" font-family="sans-serif" stroke="none" stroke-miterlimit="1.45" xml:space="preserve">       mecanico: Mecanico</text>
      <text stroke-linecap="butt" x="-26.2" y="684.9194" clip-path="url(#clipPath2)" font-family="sans-serif" stroke="none" stroke-miterlimit="1.45" xml:space="preserve">       )</text>
      <text stroke-linecap="butt" x="-26.2" y="701.2635" clip-path="url(#clipPath2)" font-family="sans-serif" stroke="none" stroke-miterlimit="1.45" xml:space="preserve">+ atribuir_dono(dono: ClienteCiclista)</text>
      <text stroke-linecap="butt" x="-26.2" y="717.6076" clip-path="url(#clipPath2)" font-family="sans-serif" stroke="none" stroke-miterlimit="1.45" xml:space="preserve">+ str()</text>
      <rect x="321" y="450" clip-path="url(#clipPath2)" fill="lime" width="277" height="26" stroke="none"/>
      <rect x="320" y="449" clip-path="url(#clipPath2)" fill="lime" width="1" height="28" stroke="none"/>
      <rect x="321" y="449" clip-path="url(#clipPath2)" fill="lime" width="277" height="1" stroke="none"/>
      <rect x="321" y="476" clip-path="url(#clipPath2)" fill="rgb(0,178,0)" width="278" height="1" stroke="none"/>
      <rect x="598" y="449" clip-path="url(#clipPath2)" fill="rgb(0,178,0)" width="1" height="27" stroke="none"/>
    </g>
    <g font-size="13px" stroke-linecap="butt" transform="matrix(1,0,0,1,170,88)" text-rendering="geometricPrecision" font-family="sans-serif" shape-rendering="geometricPrecision" font-weight="bold" stroke-miterlimit="1.45">
      <text x="414.3729" xml:space="preserve" y="468.497" clip-path="url(#clipPath2)" stroke="none">ClienteCiclista</text>
    </g>
    <g text-rendering="geometricPrecision" shape-rendering="geometricPrecision" transform="matrix(1,0,0,1,170,88)">
      <line y2="483" fill="none" x1="321" clip-path="url(#clipPath2)" x2="599" y1="483"/>
      <line y2="493" fill="none" x1="321" clip-path="url(#clipPath2)" x2="599" y1="493"/>
      <text stroke-linecap="butt" x="325.8" y="511.4281" clip-path="url(#clipPath2)" font-family="sans-serif" stroke="none" stroke-miterlimit="1.45" xml:space="preserve">+ adquirir_bicicleta(bicicleta: Bicicleta)</text>
      <text stroke-linecap="butt" x="325.8" y="527.7722" clip-path="url(#clipPath2)" font-family="sans-serif" stroke="none" stroke-miterlimit="1.45" xml:space="preserve">+ receber_convite(evento: PasseioCiclistico)</text>
      <text stroke-linecap="butt" x="325.8" y="544.1163" clip-path="url(#clipPath2)" font-family="sans-serif" stroke="none" stroke-miterlimit="1.45" xml:space="preserve">+ confirmar_presenca(evento: PasseioCiclistico)</text>
      <rect x="828" y="450" clip-path="url(#clipPath2)" fill="lime" width="309" height="26" stroke="none"/>
      <rect x="827" y="449" clip-path="url(#clipPath2)" fill="lime" width="1" height="28" stroke="none"/>
      <rect x="828" y="449" clip-path="url(#clipPath2)" fill="lime" width="309" height="1" stroke="none"/>
      <rect x="828" y="476" clip-path="url(#clipPath2)" fill="rgb(0,178,0)" width="310" height="1" stroke="none"/>
      <rect x="1137" y="449" clip-path="url(#clipPath2)" fill="rgb(0,178,0)" width="1" height="27" stroke="none"/>
    </g>
    <g font-size="13px" stroke-linecap="butt" transform="matrix(1,0,0,1,170,88)" text-rendering="geometricPrecision" font-family="sans-serif" shape-rendering="geometricPrecision" font-weight="bold" stroke-miterlimit="1.45">
      <text x="929.906" xml:space="preserve" y="468.497" clip-path="url(#clipPath2)" stroke="none">PasseioCiclistico</text>
    </g>
    <g text-rendering="geometricPrecision" shape-rendering="geometricPrecision" transform="matrix(1,0,0,1,170,88)">
      <line y2="477" fill="none" x1="828" clip-path="url(#clipPath2)" x2="1137" y1="477"/>
      <text stroke-linecap="butt" x="832.3417" y="495.1341" clip-path="url(#clipPath2)" font-family="sans-serif" stroke="none" stroke-miterlimit="1.45" xml:space="preserve">- data_horario: datetime</text>
      <text stroke-linecap="butt" x="832.3417" y="511.4782" clip-path="url(#clipPath2)" font-family="sans-serif" stroke="none" stroke-miterlimit="1.45" xml:space="preserve">- faixa_etaria_publico_alvo: tuple[int, int]</text>
      <text stroke-linecap="butt" x="832.3417" y="527.8223" clip-path="url(#clipPath2)" font-family="sans-serif" stroke="none" stroke-miterlimit="1.45" xml:space="preserve">- sexo_publico_alvo: list[str]</text>
      <text stroke-linecap="butt" x="832.3417" y="544.1664" clip-path="url(#clipPath2)" font-family="sans-serif" stroke="none" stroke-miterlimit="1.45" xml:space="preserve">- percurso: list[str]</text>
      <line y2="552" fill="none" x1="828" clip-path="url(#clipPath2)" x2="1137" y1="552"/>
      <text stroke-linecap="butt" x="832.3417" y="570.5106" clip-path="url(#clipPath2)" font-family="sans-serif" stroke="none" stroke-miterlimit="1.45" xml:space="preserve">+ convidar_clientes(clientes: list[ClienteCiclista])</text>
      <text stroke-linecap="butt" x="832.3417" y="586.8547" clip-path="url(#clipPath2)" font-family="sans-serif" stroke="none" stroke-miterlimit="1.45" xml:space="preserve">+ adicionar_participante(participante: ClienteCiclista])</text>
      <text stroke-linecap="butt" x="832.3417" y="603.1988" clip-path="url(#clipPath2)" font-family="sans-serif" stroke="none" stroke-miterlimit="1.45" xml:space="preserve">+ str()</text>
      <rect x="321" y="223" clip-path="url(#clipPath2)" fill="lime" width="277" height="26" stroke="none"/>
      <rect x="320" y="222" clip-path="url(#clipPath2)" fill="lime" width="1" height="28" stroke="none"/>
      <rect x="321" y="222" clip-path="url(#clipPath2)" fill="lime" width="277" height="1" stroke="none"/>
      <rect x="321" y="249" clip-path="url(#clipPath2)" fill="rgb(0,178,0)" width="278" height="1" stroke="none"/>
      <rect x="598" y="222" clip-path="url(#clipPath2)" fill="rgb(0,178,0)" width="1" height="27" stroke="none"/>
    </g>
    <g font-size="13px" stroke-linecap="butt" transform="matrix(1,0,0,1,170,88)" text-rendering="geometricPrecision" font-family="sans-serif" shape-rendering="geometricPrecision" font-weight="bold" stroke-miterlimit="1.45">
      <text x="438.3253" xml:space="preserve" y="241.4345" clip-path="url(#clipPath2)" stroke="none">Pessoa</text>
    </g>
    <g text-rendering="geometricPrecision" shape-rendering="geometricPrecision" transform="matrix(1,0,0,1,170,88)">
      <line y2="250" fill="none" x1="321" clip-path="url(#clipPath2)" x2="599" y1="250"/>
      <text stroke-linecap="butt" x="325.8" y="268.0716" clip-path="url(#clipPath2)" font-family="sans-serif" stroke="none" stroke-miterlimit="1.45" xml:space="preserve">- nome: str</text>
      <text stroke-linecap="butt" x="325.8" y="284.4157" clip-path="url(#clipPath2)" font-family="sans-serif" stroke="none" stroke-miterlimit="1.45" xml:space="preserve">- data_nascimento: date</text>
      <text stroke-linecap="butt" x="325.8" y="300.7598" clip-path="url(#clipPath2)" font-family="sans-serif" stroke="none" stroke-miterlimit="1.45" xml:space="preserve">+ sexo: Enum 'Sexo'</text>
      <text stroke-linecap="butt" x="325.8" y="317.1039" clip-path="url(#clipPath2)" font-family="sans-serif" stroke="none" stroke-miterlimit="1.45" xml:space="preserve">+ idade: str</text>
      <line y2="325" fill="none" x1="321" clip-path="url(#clipPath2)" x2="599" y1="325"/>
      <rect x="-30" y="223" clip-path="url(#clipPath2)" fill="lime" width="210" height="26" stroke="none"/>
      <rect x="-31" y="222" clip-path="url(#clipPath2)" fill="lime" width="1" height="28" stroke="none"/>
      <rect x="-30" y="222" clip-path="url(#clipPath2)" fill="lime" width="210" height="1" stroke="none"/>
      <rect x="-30" y="249" clip-path="url(#clipPath2)" fill="rgb(0,178,0)" width="211" height="1" stroke="none"/>
      <rect x="180" y="222" clip-path="url(#clipPath2)" fill="rgb(0,178,0)" width="1" height="27" stroke="none"/>
    </g>
    <g font-size="13px" stroke-linecap="butt" transform="matrix(1,0,0,1,170,88)" text-rendering="geometricPrecision" font-family="sans-serif" shape-rendering="geometricPrecision" font-weight="bold" stroke-miterlimit="1.45">
      <text x="43.9445" xml:space="preserve" y="241.4345" clip-path="url(#clipPath2)" stroke="none">Mecânico</text>
    </g>
    <g text-rendering="geometricPrecision" shape-rendering="geometricPrecision" transform="matrix(1,0,0,1,170,88)">
      <line y2="250" fill="none" x1="-30" clip-path="url(#clipPath2)" x2="179" y1="250"/>
      <line y2="260" fill="none" x1="-30" clip-path="url(#clipPath2)" x2="179" y1="260"/>
      <text stroke-linecap="butt" x="-26.2" y="278.0716" clip-path="url(#clipPath2)" font-family="sans-serif" stroke="none" stroke-miterlimit="1.45" xml:space="preserve">+revisar_bicicleta(bicicleta: Bicicleta)</text>
      <rect x="321" y="30" clip-path="url(#clipPath2)" fill="lime" width="277" height="26" stroke="none"/>
      <rect x="320" y="29" clip-path="url(#clipPath2)" fill="lime" width="1" height="28" stroke="none"/>
      <rect x="321" y="29" clip-path="url(#clipPath2)" fill="lime" width="277" height="1" stroke="none"/>
      <rect x="321" y="56" clip-path="url(#clipPath2)" fill="rgb(0,178,0)" width="278" height="1" stroke="none"/>
      <rect x="598" y="29" clip-path="url(#clipPath2)" fill="rgb(0,178,0)" width="1" height="27" stroke="none"/>
    </g>
    <g font-size="13px" stroke-linecap="butt" transform="matrix(1,0,0,1,170,88)" text-rendering="geometricPrecision" font-family="sans-serif" shape-rendering="geometricPrecision" font-weight="bold" stroke-miterlimit="1.45">
      <text x="437.4674" xml:space="preserve" y="48.2327" clip-path="url(#clipPath2)" stroke="none">Oficina</text>
    </g>
    <g text-rendering="geometricPrecision" shape-rendering="geometricPrecision" transform="matrix(1,0,0,1,170,88)">
      <line y2="57" fill="none" x1="321" clip-path="url(#clipPath2)" x2="599" y1="57"/>
      <text stroke-linecap="butt" x="325.8" y="74.8698" clip-path="url(#clipPath2)" font-family="sans-serif" stroke="none" stroke-miterlimit="1.45" xml:space="preserve">- nome: str</text>
      <text stroke-linecap="butt" x="325.8" y="91.2139" clip-path="url(#clipPath2)" font-family="sans-serif" stroke="none" stroke-miterlimit="1.45" xml:space="preserve">- cnpj: str</text>
      <line y2="99" fill="none" x1="321" clip-path="url(#clipPath2)" x2="599" y1="99"/>
      <text stroke-linecap="butt" x="325.8" y="117.558" clip-path="url(#clipPath2)" font-family="sans-serif" stroke="none" stroke-miterlimit="1.45" xml:space="preserve">+ contratar(mecanico: Mecanico)</text>
      <text stroke-linecap="butt" x="325.8" y="133.9021" clip-path="url(#clipPath2)" font-family="sans-serif" stroke="none" stroke-miterlimit="1.45" xml:space="preserve">+ dispensar(mecanico: Mecanico)</text>
      <text stroke-linecap="butt" x="325.8" y="150.2462" clip-path="url(#clipPath2)" font-family="sans-serif" stroke="none" stroke-miterlimit="1.45" xml:space="preserve">+ criar_evento(</text>
      <text stroke-linecap="butt" x="325.8" y="166.5903" clip-path="url(#clipPath2)" font-family="sans-serif" stroke="none" stroke-miterlimit="1.45" xml:space="preserve">       evento: PasseioCiclistico</text>
      <text stroke-linecap="butt" x="325.8" y="182.9345" clip-path="url(#clipPath2)" font-family="sans-serif" stroke="none" stroke-miterlimit="1.45" xml:space="preserve">       )</text>
      <text stroke-linecap="butt" x="325.8" y="199.2786" clip-path="url(#clipPath2)" font-family="sans-serif" stroke="none" stroke-miterlimit="1.45" xml:space="preserve">+ conhecer_cliente(cliente: ClienteCiclista)</text>
      <path fill="none" stroke-miterlimit="1.45" d="M180.8265 453.6 L312.7771 453.6" clip-path="url(#clipPath2)" stroke-linecap="butt"/>
      <path stroke-miterlimit="1.45" d="M320.7771 453.6 L308.7771 448.6 L311.7771 453.6 L308.7771 458.6 Z" clip-path="url(#clipPath2)" stroke-linecap="butt" stroke="none"/>
    </g>
    <g stroke-linecap="butt" transform="matrix(1,0,0,1,170,88)" fill="white" text-rendering="geometricPrecision" shape-rendering="geometricPrecision" stroke="white" stroke-miterlimit="1.45">
      <rect x="234.1419" width="33.3162" height="20.3441" y="443.4279" clip-path="url(#clipPath2)" stroke="none"/>
      <text x="236.1419" y="458.256" clip-path="url(#clipPath2)" fill="black" font-family="sans-serif" stroke="none" xml:space="preserve">dono</text>
      <text x="287.8576" y="449.084" clip-path="url(#clipPath2)" fill="black" font-family="sans-serif" stroke="none" xml:space="preserve">1</text>
      <text x="207.7868" y="447.084" clip-path="url(#clipPath2)" fill="black" font-family="sans-serif" stroke="none" xml:space="preserve">1</text>
      <path fill="none" d="M313.8136 473.6 L180.7793 473.6" clip-path="url(#clipPath2)" stroke="black"/>
      <path d="M320.8136 473.6 L313.8136 478.6 L306.8136 473.6 L313.8136 468.6 Z" clip-path="url(#clipPath2)" stroke="none"/>
      <path fill="none" d="M320.8136 473.6 L313.8136 478.6 L306.8136 473.6 L313.8136 468.6 Z" clip-path="url(#clipPath2)" stroke="black"/>
      <rect x="230.4759" width="40.6483" height="20.3441" y="463.4279" clip-path="url(#clipPath2)" stroke="none"/>
      <text x="232.4759" y="478.256" clip-path="url(#clipPath2)" fill="black" font-family="sans-serif" stroke="none" xml:space="preserve">possui</text>
      <text x="306.9359" y="491.6002" clip-path="url(#clipPath2)" fill="black" font-family="sans-serif" stroke="none" xml:space="preserve">1</text>
      <text x="183.8" y="488.9043" clip-path="url(#clipPath2)" fill="black" font-family="sans-serif" stroke="none" xml:space="preserve">*</text>
      <path fill="none" d="M607.5639 473.6 L827.3165 473.6" clip-path="url(#clipPath2)" stroke="black"/>
      <path d="M600.5639 473.6 L607.5639 468.6 L614.5639 473.6 L607.5639 478.6 Z" clip-path="url(#clipPath2)" stroke="none"/>
      <path fill="none" d="M600.5639 473.6 L607.5639 468.6 L614.5639 473.6 L607.5639 478.6 Z" clip-path="url(#clipPath2)" stroke="black"/>
      <rect x="688.692" width="50.4763" height="20.3441" y="463.4279" clip-path="url(#clipPath2)" stroke="none"/>
      <text x="690.692" y="478.256" clip-path="url(#clipPath2)" fill="black" font-family="sans-serif" stroke="none" xml:space="preserve">convites</text>
      <path fill="none" d="M820.3595 453.6 L607.5444 453.6" clip-path="url(#clipPath2)" stroke="black"/>
      <path d="M827.3595 453.6 L820.3595 458.6 L813.3595 453.6 L820.3595 448.6 Z" clip-path="url(#clipPath2)" stroke="none"/>
      <path fill="none" d="M827.3595 453.6 L820.3595 458.6 L813.3595 453.6 L820.3595 448.6 Z" clip-path="url(#clipPath2)" stroke="black"/>
      <path d="M600.5444 453.6 L607.5444 448.6 L614.5444 453.6 L607.5444 458.6 Z" clip-path="url(#clipPath2)" stroke="none"/>
      <path fill="none" d="M600.5444 453.6 L607.5444 448.6 L614.5444 453.6 L607.5444 458.6 Z" clip-path="url(#clipPath2)" stroke="black"/>
      <rect x="647.8197" width="132.2209" height="20.3441" y="443.4279" clip-path="url(#clipPath2)" stroke="none"/>
      <text x="649.8198" y="458.256" clip-path="url(#clipPath2)" fill="black" font-family="sans-serif" stroke="none" xml:space="preserve">eventos - participantes</text>
      <path fill="none" d="M460.6594 449.6048 L460.6594 383.761 L646.5 383.761 L646.5 246.5375 L615.5389 246.5375" clip-path="url(#clipPath2)" stroke="black"/>
      <path d="M600.5389 246.5375 L616.5389 252.5375 L616.5389 240.5375 Z" clip-path="url(#clipPath2)" stroke="none"/>
      <path fill="none" d="M600.5389 246.5375 L616.5389 252.5375 L616.5389 240.5375 Z" clip-path="url(#clipPath2)" stroke="black"/>
      <path fill="none" d="M180.8265 236.5375 L305.7771 236.5375" clip-path="url(#clipPath2)" stroke="black"/>
      <path d="M320.7771 236.5375 L304.7771 230.5375 L304.7771 242.5375 Z" clip-path="url(#clipPath2)" stroke="none"/>
      <path fill="none" d="M320.7771 236.5375 L304.7771 230.5375 L304.7771 242.5375 Z" clip-path="url(#clipPath2)" stroke="black"/>
      <path fill="none" d="M-31.1741 236.5375 L-51.2 236.5375 L-51.2 463.6 L-39.1741 463.6" clip-path="url(#clipPath2)" stroke="black"/>
      <path fill="black" d="M-31.1741 463.6 L-43.1741 458.6 L-40.1741 463.6 L-43.1741 468.6 Z" clip-path="url(#clipPath2)" stroke="none"/>
    </g>
    <g stroke-linecap="butt" transform="matrix(0,1,-1,0,128.9721,389.2924)" fill="white" text-rendering="geometricPrecision" shape-rendering="geometricPrecision" stroke="white" stroke-miterlimit="1.45">
      <rect x="0" width="97.5527" height="20.3441" y="0" clip-path="url(#clipPath3)" stroke="none"/>
      <text x="2" y="14.8281" clip-path="url(#clipPath3)" fill="black" font-family="sans-serif" stroke="none" xml:space="preserve">ultimo mecanico</text>
    </g>
    <g text-rendering="geometricPrecision" stroke-miterlimit="1.45" shape-rendering="geometricPrecision" transform="matrix(1,0,0,1,170,88)" stroke-linecap="butt">
      <path fill="none" d="M313.8136 43.3357 L74.8 43.3357 L74.8 222.5285" clip-path="url(#clipPath2)"/>
      <path fill="white" d="M320.8136 43.3357 L313.8136 48.3357 L306.8136 43.3357 L313.8136 38.3357 Z" clip-path="url(#clipPath2)" stroke="none"/>
      <path fill="none" d="M320.8136 43.3357 L313.8136 48.3357 L306.8136 43.3357 L313.8136 38.3357 Z" clip-path="url(#clipPath2)"/>
      <rect x="164.2151" y="33.1636" clip-path="url(#clipPath2)" fill="white" width="55.2044" height="20.3441" stroke="none"/>
      <text x="166.2151" xml:space="preserve" y="47.9917" clip-path="url(#clipPath2)" font-family="sans-serif" stroke="none">emprega</text>
      <text x="86.9721" xml:space="preserve" y="212.0215" clip-path="url(#clipPath2)" font-family="sans-serif" stroke="none">*</text>
      <path fill="none" d="M607.5353 33.3357 L983.05 33.3357 L983.05 449.6028" clip-path="url(#clipPath2)"/>
      <path fill="white" d="M600.5353 33.3357 L607.5353 28.3357 L614.5353 33.3357 L607.5353 38.3357 Z" clip-path="url(#clipPath2)" stroke="none"/>
      <path fill="none" d="M600.5353 33.3357 L607.5353 28.3357 L614.5353 33.3357 L607.5353 38.3357 Z" clip-path="url(#clipPath2)"/>
      <rect x="780.5493" y="23.1636" clip-path="url(#clipPath2)" fill="white" width="54.9404" height="20.3441" stroke="none"/>
      <text x="782.5493" xml:space="preserve" y="37.9917" clip-path="url(#clipPath2)" font-family="sans-serif" stroke="none">promove</text>
      <text x="995.222" xml:space="preserve" y="439.084" clip-path="url(#clipPath2)" font-family="sans-serif" stroke="none">*</text>
      <path fill="none" d="M607.5389 53.3357 L646.5 53.3357 L646.5 227.511 L600.5049 227.511" clip-path="url(#clipPath2)"/>
      <path fill="white" d="M600.5389 53.3357 L607.5389 48.3357 L614.5389 53.3357 L607.5389 58.3357 Z" clip-path="url(#clipPath2)" stroke="none"/>
      <path fill="none" d="M600.5389 53.3357 L607.5389 48.3357 L614.5389 53.3357 L607.5389 58.3357 Z" clip-path="url(#clipPath2)"/>
    </g>
    <g stroke-linecap="butt" transform="matrix(0,1,-1,0,826.6721,189.5231)" fill="white" text-rendering="geometricPrecision" shape-rendering="geometricPrecision" stroke="white" stroke-miterlimit="1.45">
      <rect x="0" width="77.8006" height="20.3441" y="0" clip-path="url(#clipPath4)" stroke="none"/>
      <text x="2" y="14.8281" clip-path="url(#clipPath4)" fill="black" font-family="sans-serif" stroke="none" xml:space="preserve">Proprietários</text>
    </g>
    <g text-rendering="geometricPrecision" stroke-miterlimit="1.45" shape-rendering="geometricPrecision" font-family="sans-serif" transform="matrix(1,0,0,1,170,88)" stroke-linecap="butt">
      <text x="620.2034" xml:space="preserve" y="207.6165" clip-path="url(#clipPath2)" stroke="none">*</text>
      <path fill="none" d="M607.5312 43.3357 L692 43.3357 L692 417.4485 L515 417.4485 L515 449.6312" clip-path="url(#clipPath2)"/>
      <path fill="white" d="M600.5312 43.3357 L607.5312 38.3357 L614.5312 43.3357 L607.5312 48.3357 Z" clip-path="url(#clipPath2)" stroke="none"/>
      <path fill="none" d="M600.5312 43.3357 L607.5312 38.3357 L614.5312 43.3357 L607.5312 48.3357 Z" clip-path="url(#clipPath2)"/>
    </g>
    <g stroke-linecap="butt" transform="matrix(0,1,-1,0,872.1721,293.9879)" fill="white" text-rendering="geometricPrecision" shape-rendering="geometricPrecision" stroke="white" stroke-miterlimit="1.45">
      <rect x="0" width="48.8083" height="20.3441" y="0" clip-path="url(#clipPath5)" stroke="none"/>
      <text x="2" y="14.8281" clip-path="url(#clipPath5)" fill="black" font-family="sans-serif" stroke="none" xml:space="preserve">Clientes</text>
    </g>
    <g text-rendering="geometricPrecision" stroke-miterlimit="1.45" shape-rendering="geometricPrecision" font-family="sans-serif" transform="matrix(1,0,0,1,170,88)" stroke-linecap="butt">
      <text x="554.1286" xml:space="preserve" y="439.084" clip-path="url(#clipPath2)" stroke="none">*</text>
    </g>
  </g>
</svg>
